solid OpenSCAD_Model
  facet normal 1 -0 0
    outer loop
      vertex 9 -38.9 49
      vertex 9 -30.1 47
      vertex 9 -30.1 49
    endloop
  endfacet
  facet normal 1 0 0
    outer loop
      vertex 9 -30.1 47
      vertex 9 -33 43
      vertex 9 -30.1 42
    endloop
  endfacet
  facet normal 1 0 0
    outer loop
      vertex 9 -30.1 42
      vertex 9 -32.6 42
      vertex 9 -30.1 29
    endloop
  endfacet
  facet normal 1 0 0
    outer loop
      vertex 9 -30.1 42
      vertex 9 -33 43
      vertex 9 -32.6 42
    endloop
  endfacet
  facet normal 1 0 0
    outer loop
      vertex 9 -30.1 47
      vertex 9 -38.9 49
      vertex 9 -33 43
    endloop
  endfacet
  facet normal 1 0 0
    outer loop
      vertex 9 -33 43
      vertex 9 -38.9 49
      vertex 9 -36.4 43
    endloop
  endfacet
  facet normal 1 0 0
    outer loop
      vertex 9 -38.9 29
      vertex 9 -36.4 43
      vertex 9 -38.9 49
    endloop
  endfacet
  facet normal 1 0 0
    outer loop
      vertex 9 -36.4 43
      vertex 9 -38.9 29
      vertex 9 -36.4 29
    endloop
  endfacet
  facet normal 1 0 0
    outer loop
      vertex 9 3 47
      vertex 9 -1 42
      vertex 9 3 26
    endloop
  endfacet
  facet normal 1 -0 0
    outer loop
      vertex 9 -30.1 47
      vertex 9 -1 42
      vertex 9 3 47
    endloop
  endfacet
  facet normal 1 0 0
    outer loop
      vertex 9 -1 42
      vertex 9 -30.1 47
      vertex 9 -30.1 42
    endloop
  endfacet
  facet normal 1 0 0
    outer loop
      vertex 9 3 26
      vertex 9 -1 42
      vertex 9 -1 26
    endloop
  endfacet
  facet normal 1 0 0
    outer loop
      vertex 9 -30.1 29
      vertex 9 -32.6 42
      vertex 9 -32.6 29
    endloop
  endfacet
  facet normal 1 0 0
    outer loop
      vertex 9 -32.6 42
      vertex 9 -33 43
      vertex 9 -33 42
    endloop
  endfacet
  facet normal 0 0 1
    outer loop
      vertex 2.95438 0 47
      vertex 9 3 47
      vertex 2.95438 2.8 47
    endloop
  endfacet
  facet normal 0 0 1
    outer loop
      vertex 9 3 47
      vertex -2.95438 2.8 47
      vertex 2.95438 2.8 47
    endloop
  endfacet
  facet normal 0 0 1
    outer loop
      vertex -2.95438 2.8 47
      vertex -9 3 47
      vertex -2.95438 0 47
    endloop
  endfacet
  facet normal -0 0 1
    outer loop
      vertex -9 3 47
      vertex -2.95438 2.8 47
      vertex 9 3 47
    endloop
  endfacet
  facet normal 0 0 1
    outer loop
      vertex 9 3 47
      vertex 2.95438 0 47
      vertex 9 -30.1 47
    endloop
  endfacet
  facet normal -0 0 1
    outer loop
      vertex -2.95438 0 47
      vertex 9 -30.1 47
      vertex 2.95438 0 47
    endloop
  endfacet
  facet normal 0 0 1
    outer loop
      vertex -9 -30.1 47
      vertex -2.95438 0 47
      vertex -9 3 47
    endloop
  endfacet
  facet normal 0 0 1
    outer loop
      vertex -2.95438 0 47
      vertex -9 -30.1 47
      vertex 9 -30.1 47
    endloop
  endfacet
  facet normal 0 0 -1
    outer loop
      vertex -9 -1 26
      vertex 9 3 26
      vertex 9 -1 26
    endloop
  endfacet
  facet normal -0 0 -1
    outer loop
      vertex 9 3 26
      vertex -9 -1 26
      vertex -9 3 26
    endloop
  endfacet
  facet normal -1 0 0
    outer loop
      vertex -9 -36.4 29
      vertex -9 -38.9 29
      vertex -9 -36.4 43
    endloop
  endfacet
  facet normal -1 0 0
    outer loop
      vertex -9 -32.6 42
      vertex -9 -30.1 42
      vertex -9 -30.1 29
    endloop
  endfacet
  facet normal -1 0 0
    outer loop
      vertex -9 -33 43
      vertex -9 -30.1 42
      vertex -9 -32.6 42
    endloop
  endfacet
  facet normal -1 0 0
    outer loop
      vertex -9 -32.6 42
      vertex -9 -30.1 29
      vertex -9 -32.6 29
    endloop
  endfacet
  facet normal -1 0 0
    outer loop
      vertex -9 -30.1 42
      vertex -9 -33 43
      vertex -9 -30.1 47
    endloop
  endfacet
  facet normal -1 0 0
    outer loop
      vertex -9 -33 43
      vertex -9 -32.6 42
      vertex -9 -33 42
    endloop
  endfacet
  facet normal -1 0 0
    outer loop
      vertex -9 -38.9 49
      vertex -9 -30.1 47
      vertex -9 -33 43
    endloop
  endfacet
  facet normal -1 0 0
    outer loop
      vertex -9 -38.9 49
      vertex -9 -33 43
      vertex -9 -36.4 43
    endloop
  endfacet
  facet normal -1 0 0
    outer loop
      vertex -9 -30.1 47
      vertex -9 -38.9 49
      vertex -9 -30.1 49
    endloop
  endfacet
  facet normal -1 0 0
    outer loop
      vertex -9 -38.9 49
      vertex -9 -36.4 43
      vertex -9 -38.9 29
    endloop
  endfacet
  facet normal -1 0 0
    outer loop
      vertex -9 -1 42
      vertex -9 3 26
      vertex -9 -1 26
    endloop
  endfacet
  facet normal -1 0 0
    outer loop
      vertex -9 3 26
      vertex -9 -1 42
      vertex -9 3 47
    endloop
  endfacet
  facet normal -1 0 0
    outer loop
      vertex -9 -30.1 47
      vertex -9 -1 42
      vertex -9 -30.1 42
    endloop
  endfacet
  facet normal -1 0 0
    outer loop
      vertex -9 -1 42
      vertex -9 -30.1 47
      vertex -9 3 47
    endloop
  endfacet
  facet normal 0 1 0
    outer loop
      vertex 9 3 47
      vertex 2.5 3 44
      vertex -9 3 47
    endloop
  endfacet
  facet normal 0 1 0
    outer loop
      vertex 9 3 47
      vertex 2.5 3 33
      vertex 2.5 3 44
    endloop
  endfacet
  facet normal 0 1 0
    outer loop
      vertex 2.5 3 33
      vertex 9 3 26
      vertex -2.5 3 33
    endloop
  endfacet
  facet normal 0 1 -0
    outer loop
      vertex 9 3 26
      vertex 2.5 3 33
      vertex 9 3 47
    endloop
  endfacet
  facet normal 0 1 -0
    outer loop
      vertex -2.5 3 44
      vertex -9 3 47
      vertex 2.5 3 44
    endloop
  endfacet
  facet normal 0 1 -0
    outer loop
      vertex -2.5 3 33
      vertex -9 3 47
      vertex -2.5 3 44
    endloop
  endfacet
  facet normal 0 1 0
    outer loop
      vertex -2.5 3 33
      vertex -9 3 26
      vertex -9 3 47
    endloop
  endfacet
  facet normal 0 1 0
    outer loop
      vertex -9 3 26
      vertex -2.5 3 33
      vertex 9 3 26
    endloop
  endfacet
  facet normal 0 -1 0
    outer loop
      vertex -9 -1 42
      vertex -4.89074 -1 41.9604
      vertex -4.8949 -1 42
    endloop
  endfacet
  facet normal 0 -1 0
    outer loop
      vertex -9 -1 42
      vertex -4.56773 -1 40.9663
      vertex -4.89074 -1 41.9604
    endloop
  endfacet
  facet normal 0 -1 0
    outer loop
      vertex -9 -1 42
      vertex -4.04508 -1 40.0611
      vertex -4.56773 -1 40.9663
    endloop
  endfacet
  facet normal 0 -1 0
    outer loop
      vertex -2.5 -1 33
      vertex -4.04508 -1 40.0611
      vertex -9 -1 42
    endloop
  endfacet
  facet normal 0 -1 0
    outer loop
      vertex -4.04508 -1 40.0611
      vertex -2.5 -1 33
      vertex -3.34565 -1 39.2843
    endloop
  endfacet
  facet normal 0 -1 0
    outer loop
      vertex -3.34565 -1 39.2843
      vertex -2.5 -1 33
      vertex -2.5 -1 38.6699
    endloop
  endfacet
  facet normal 0 -1 -0
    outer loop
      vertex -2.5 -1 33
      vertex -9 -1 26
      vertex 2.5 -1 33
    endloop
  endfacet
  facet normal 0 -1 0
    outer loop
      vertex -9 -1 26
      vertex -2.5 -1 33
      vertex -9 -1 42
    endloop
  endfacet
  facet normal 0 -1 0
    outer loop
      vertex 4.89074 -1 41.9604
      vertex 9 -1 42
      vertex 4.8949 -1 42
    endloop
  endfacet
  facet normal 0 -1 0
    outer loop
      vertex 4.56773 -1 40.9663
      vertex 9 -1 42
      vertex 4.89074 -1 41.9604
    endloop
  endfacet
  facet normal 0 -1 0
    outer loop
      vertex 4.04508 -1 40.0611
      vertex 9 -1 42
      vertex 4.56773 -1 40.9663
    endloop
  endfacet
  facet normal 0 -1 0
    outer loop
      vertex 2.5 -1 33
      vertex 4.04508 -1 40.0611
      vertex 3.34565 -1 39.2843
    endloop
  endfacet
  facet normal 0 -1 0
    outer loop
      vertex 2.5 -1 33
      vertex 3.34565 -1 39.2843
      vertex 2.5 -1 38.6699
    endloop
  endfacet
  facet normal 0 -1 -0
    outer loop
      vertex 4.04508 -1 40.0611
      vertex 2.5 -1 33
      vertex 9 -1 42
    endloop
  endfacet
  facet normal 0 -1 0
    outer loop
      vertex 2.5 -1 33
      vertex 9 -1 26
      vertex 9 -1 42
    endloop
  endfacet
  facet normal 0 -1 0
    outer loop
      vertex 9 -1 26
      vertex 2.5 -1 33
      vertex -9 -1 26
    endloop
  endfacet
  facet normal -0.951054 0 0.309023
    outer loop
      vertex 4.56773 -1 40.9663
      vertex 4.89074 2.8 41.9604
      vertex 4.56773 2.8 40.9663
    endloop
  endfacet
  facet normal -0.951054 0 0.309023
    outer loop
      vertex 4.89074 2.8 41.9604
      vertex 4.56773 -1 40.9663
      vertex 4.89074 -1 41.9604
    endloop
  endfacet
  facet normal -0.951054 0 -0.309023
    outer loop
      vertex 4.89074 0 44.0396
      vertex 4.56773 2.8 45.0337
      vertex 4.89074 2.8 44.0396
    endloop
  endfacet
  facet normal -0.951054 -0 -0.309023
    outer loop
      vertex 4.56773 2.8 45.0337
      vertex 4.89074 0 44.0396
      vertex 4.56773 0 45.0337
    endloop
  endfacet
  facet normal -0.994523 0 -0.104522
    outer loop
      vertex 5 0 43
      vertex 4.89074 2.8 44.0396
      vertex 5 2.8 43
    endloop
  endfacet
  facet normal -0.994523 -0 -0.104522
    outer loop
      vertex 4.89074 2.8 44.0396
      vertex 5 0 43
      vertex 4.89074 0 44.0396
    endloop
  endfacet
  facet normal -0.743147 0 0.669129
    outer loop
      vertex 3.34565 -1 39.2843
      vertex 4.04508 2.8 40.0611
      vertex 3.34565 2.8 39.2843
    endloop
  endfacet
  facet normal -0.743147 0 0.669129
    outer loop
      vertex 4.04508 2.8 40.0611
      vertex 3.34565 -1 39.2843
      vertex 4.04508 -1 40.0611
    endloop
  endfacet
  facet normal 0.58782 0 -0.808992
    outer loop
      vertex -3.34565 0 46.7157
      vertex -2.95438 2.8 47
      vertex -2.95438 0 47
    endloop
  endfacet
  facet normal 0.58782 0 -0.808992
    outer loop
      vertex -2.95438 2.8 47
      vertex -3.34565 0 46.7157
      vertex -3.34565 2.8 46.7157
    endloop
  endfacet
  facet normal -0.743147 0 -0.669129
    outer loop
      vertex 4.04508 0 45.9389
      vertex 3.34565 2.8 46.7157
      vertex 4.04508 2.8 45.9389
    endloop
  endfacet
  facet normal -0.743147 -0 -0.669129
    outer loop
      vertex 3.34565 2.8 46.7157
      vertex 4.04508 0 45.9389
      vertex 3.34565 0 46.7157
    endloop
  endfacet
  facet normal -0.866012 0 0.500023
    outer loop
      vertex 4.04508 -1 40.0611
      vertex 4.56773 2.8 40.9663
      vertex 4.04508 2.8 40.0611
    endloop
  endfacet
  facet normal -0.866012 0 0.500023
    outer loop
      vertex 4.56773 2.8 40.9663
      vertex 4.04508 -1 40.0611
      vertex 4.56773 -1 40.9663
    endloop
  endfacet
  facet normal -0.866012 0 -0.500023
    outer loop
      vertex 4.56773 0 45.0337
      vertex 4.04508 2.8 45.9389
      vertex 4.56773 2.8 45.0337
    endloop
  endfacet
  facet normal -0.866012 -0 -0.500023
    outer loop
      vertex 4.04508 2.8 45.9389
      vertex 4.56773 0 45.0337
      vertex 4.04508 0 45.9389
    endloop
  endfacet
  facet normal 0.951054 0 -0.309023
    outer loop
      vertex -4.56773 0 45.0337
      vertex -4.89074 2.8 44.0396
      vertex -4.56773 2.8 45.0337
    endloop
  endfacet
  facet normal 0.951054 0 -0.309023
    outer loop
      vertex -4.89074 2.8 44.0396
      vertex -4.56773 0 45.0337
      vertex -4.89074 0 44.0396
    endloop
  endfacet
  facet normal 0.994522 0 0.104524
    outer loop
      vertex -4.8949 0 42
      vertex -5 2.8 43
      vertex -5 0 43
    endloop
  endfacet
  facet normal 0.994523 6.69648e-07 0.104522
    outer loop
      vertex -5 2.8 43
      vertex -4.8949 0 42
      vertex -4.89074 2.8 41.9604
    endloop
  endfacet
  facet normal 0.994527 0 0.104476
    outer loop
      vertex -4.89074 -1 41.9604
      vertex -4.8949 0 42
      vertex -4.8949 -1 42
    endloop
  endfacet
  facet normal 0.994527 0 0.104476
    outer loop
      vertex -4.8949 0 42
      vertex -4.89074 -1 41.9604
      vertex -4.89074 2.8 41.9604
    endloop
  endfacet
  facet normal 0.866012 -0 0.500023
    outer loop
      vertex -4.56773 -1 40.9663
      vertex -4.04508 2.8 40.0611
      vertex -4.56773 2.8 40.9663
    endloop
  endfacet
  facet normal 0.866012 0 0.500023
    outer loop
      vertex -4.04508 2.8 40.0611
      vertex -4.56773 -1 40.9663
      vertex -4.04508 -1 40.0611
    endloop
  endfacet
  facet normal 0.994523 0 -0.104522
    outer loop
      vertex -4.89074 0 44.0396
      vertex -5 2.8 43
      vertex -4.89074 2.8 44.0396
    endloop
  endfacet
  facet normal 0.994523 0 -0.104522
    outer loop
      vertex -5 2.8 43
      vertex -4.89074 0 44.0396
      vertex -5 0 43
    endloop
  endfacet
  facet normal -0.994523 6.69648e-07 0.104522
    outer loop
      vertex 4.89074 2.8 41.9604
      vertex 4.8949 0 42
      vertex 5 2.8 43
    endloop
  endfacet
  facet normal -0.994527 0 0.104476
    outer loop
      vertex 4.89074 -1 41.9604
      vertex 4.8949 0 42
      vertex 4.89074 2.8 41.9604
    endloop
  endfacet
  facet normal -0.994527 0 0.104476
    outer loop
      vertex 4.8949 0 42
      vertex 4.89074 -1 41.9604
      vertex 4.8949 -1 42
    endloop
  endfacet
  facet normal -0.994522 0 0.104524
    outer loop
      vertex 5 2.8 43
      vertex 4.8949 0 42
      vertex 5 0 43
    endloop
  endfacet
  facet normal -0.58782 0 -0.808992
    outer loop
      vertex 2.95438 0 47
      vertex 3.34565 2.8 46.7157
      vertex 3.34565 0 46.7157
    endloop
  endfacet
  facet normal -0.58782 0 -0.808992
    outer loop
      vertex 3.34565 2.8 46.7157
      vertex 2.95438 0 47
      vertex 2.95438 2.8 47
    endloop
  endfacet
  facet normal 0.743147 0 -0.669129
    outer loop
      vertex -3.34565 0 46.7157
      vertex -4.04508 2.8 45.9389
      vertex -3.34565 2.8 46.7157
    endloop
  endfacet
  facet normal 0.743147 0 -0.669129
    outer loop
      vertex -4.04508 2.8 45.9389
      vertex -3.34565 0 46.7157
      vertex -4.04508 0 45.9389
    endloop
  endfacet
  facet normal 0.866012 0 -0.500023
    outer loop
      vertex -4.04508 0 45.9389
      vertex -4.56773 2.8 45.0337
      vertex -4.04508 2.8 45.9389
    endloop
  endfacet
  facet normal 0.866012 0 -0.500023
    outer loop
      vertex -4.56773 2.8 45.0337
      vertex -4.04508 0 45.9389
      vertex -4.56773 0 45.0337
    endloop
  endfacet
  facet normal 0.951054 -0 0.309023
    outer loop
      vertex -4.89074 -1 41.9604
      vertex -4.56773 2.8 40.9663
      vertex -4.89074 2.8 41.9604
    endloop
  endfacet
  facet normal 0.951054 0 0.309023
    outer loop
      vertex -4.56773 2.8 40.9663
      vertex -4.89074 -1 41.9604
      vertex -4.56773 -1 40.9663
    endloop
  endfacet
  facet normal -0.587785 0 0.809017
    outer loop
      vertex 2.5 2.8 38.6699
      vertex 3.34565 -1 39.2843
      vertex 3.34565 2.8 39.2843
    endloop
  endfacet
  facet normal -0.587785 0 0.809017
    outer loop
      vertex 3.34565 -1 39.2843
      vertex 2.5 2.8 38.6699
      vertex 2.5 -1 38.6699
    endloop
  endfacet
  facet normal 0.743147 -0 0.669129
    outer loop
      vertex -4.04508 -1 40.0611
      vertex -3.34565 2.8 39.2843
      vertex -4.04508 2.8 40.0611
    endloop
  endfacet
  facet normal 0.743147 0 0.669129
    outer loop
      vertex -3.34565 2.8 39.2843
      vertex -4.04508 -1 40.0611
      vertex -3.34565 -1 39.2843
    endloop
  endfacet
  facet normal 0.587785 0 0.809017
    outer loop
      vertex -3.34565 2.8 39.2843
      vertex -2.5 -1 38.6699
      vertex -2.5 2.8 38.6699
    endloop
  endfacet
  facet normal 0.587785 0 0.809017
    outer loop
      vertex -2.5 -1 38.6699
      vertex -3.34565 2.8 39.2843
      vertex -3.34565 -1 39.2843
    endloop
  endfacet
  facet normal 0 -1 0
    outer loop
      vertex -2.5 2.8 44
      vertex -2.95438 2.8 47
      vertex -3.34565 2.8 46.7157
    endloop
  endfacet
  facet normal 0 -1 0
    outer loop
      vertex -2.95438 2.8 47
      vertex -2.5 2.8 44
      vertex 2.95438 2.8 47
    endloop
  endfacet
  facet normal 0 -1 0
    outer loop
      vertex -2.5 2.8 44
      vertex -3.34565 2.8 46.7157
      vertex -4.04508 2.8 45.9389
    endloop
  endfacet
  facet normal 0 -1 0
    outer loop
      vertex 2.5 2.8 44
      vertex 2.95438 2.8 47
      vertex -2.5 2.8 44
    endloop
  endfacet
  facet normal 0 -1 0
    outer loop
      vertex -2.5 2.8 44
      vertex -4.04508 2.8 45.9389
      vertex -4.56773 2.8 45.0337
    endloop
  endfacet
  facet normal 0 -1 -0
    outer loop
      vertex 2.95438 2.8 47
      vertex 2.5 2.8 44
      vertex 3.34565 2.8 46.7157
    endloop
  endfacet
  facet normal 0 -1 0
    outer loop
      vertex -2.5 2.8 44
      vertex -4.56773 2.8 45.0337
      vertex -4.89074 2.8 44.0396
    endloop
  endfacet
  facet normal 0 -1 -0
    outer loop
      vertex 3.34565 2.8 46.7157
      vertex 2.5 2.8 44
      vertex 4.04508 2.8 45.9389
    endloop
  endfacet
  facet normal 0 -1 -0
    outer loop
      vertex 4.04508 2.8 45.9389
      vertex 2.5 2.8 44
      vertex 4.56773 2.8 45.0337
    endloop
  endfacet
  facet normal 0 -1 0
    outer loop
      vertex -5 2.8 43
      vertex -2.5 2.8 44
      vertex -4.89074 2.8 44.0396
    endloop
  endfacet
  facet normal 0 -1 0
    outer loop
      vertex -4.89074 2.8 41.9604
      vertex -2.5 2.8 44
      vertex -5 2.8 43
    endloop
  endfacet
  facet normal 0 -1 0
    outer loop
      vertex -4.56773 2.8 40.9663
      vertex -2.5 2.8 44
      vertex -4.89074 2.8 41.9604
    endloop
  endfacet
  facet normal 0 -1 0
    outer loop
      vertex -4.04508 2.8 40.0611
      vertex -2.5 2.8 44
      vertex -4.56773 2.8 40.9663
    endloop
  endfacet
  facet normal 0 -1 0
    outer loop
      vertex -3.34565 2.8 39.2843
      vertex -2.5 2.8 44
      vertex -4.04508 2.8 40.0611
    endloop
  endfacet
  facet normal 0 -1 -0
    outer loop
      vertex -2.5 2.8 44
      vertex -3.34565 2.8 39.2843
      vertex -2.5 2.8 38.6699
    endloop
  endfacet
  facet normal 0 -1 -0
    outer loop
      vertex 4.56773 2.8 45.0337
      vertex 2.5 2.8 44
      vertex 4.89074 2.8 44.0396
    endloop
  endfacet
  facet normal 0 -1 0
    outer loop
      vertex 2.5 2.8 44
      vertex 5 2.8 43
      vertex 4.89074 2.8 44.0396
    endloop
  endfacet
  facet normal 0 -1 0
    outer loop
      vertex 2.5 2.8 44
      vertex 4.89074 2.8 41.9604
      vertex 5 2.8 43
    endloop
  endfacet
  facet normal 0 -1 0
    outer loop
      vertex 2.5 2.8 44
      vertex 4.56773 2.8 40.9663
      vertex 4.89074 2.8 41.9604
    endloop
  endfacet
  facet normal 0 -1 0
    outer loop
      vertex 2.5 2.8 44
      vertex 4.04508 2.8 40.0611
      vertex 4.56773 2.8 40.9663
    endloop
  endfacet
  facet normal 0 -1 0
    outer loop
      vertex 2.5 2.8 44
      vertex 3.34565 2.8 39.2843
      vertex 4.04508 2.8 40.0611
    endloop
  endfacet
  facet normal -0 -1 0
    outer loop
      vertex 3.34565 2.8 39.2843
      vertex 2.5 2.8 44
      vertex 2.5 2.8 38.6699
    endloop
  endfacet
  facet normal -1 0 0
    outer loop
      vertex 2.5 3 33
      vertex 2.5 2.8 38.6699
      vertex 2.5 3 44
    endloop
  endfacet
  facet normal -1 0 0
    outer loop
      vertex 2.5 -1 33
      vertex 2.5 2.8 38.6699
      vertex 2.5 3 33
    endloop
  endfacet
  facet normal -1 -0 0
    outer loop
      vertex 2.5 2.8 38.6699
      vertex 2.5 -1 33
      vertex 2.5 -1 38.6699
    endloop
  endfacet
  facet normal -1 -0 0
    outer loop
      vertex 2.5 3 44
      vertex 2.5 2.8 38.6699
      vertex 2.5 2.8 44
    endloop
  endfacet
  facet normal 0 0 -1
    outer loop
      vertex -2.5 2.8 44
      vertex 2.5 3 44
      vertex 2.5 2.8 44
    endloop
  endfacet
  facet normal -0 0 -1
    outer loop
      vertex 2.5 3 44
      vertex -2.5 2.8 44
      vertex -2.5 3 44
    endloop
  endfacet
  facet normal -0 0 1
    outer loop
      vertex -2.5 3 33
      vertex 2.5 -1 33
      vertex 2.5 3 33
    endloop
  endfacet
  facet normal 0 0 1
    outer loop
      vertex 2.5 -1 33
      vertex -2.5 3 33
      vertex -2.5 -1 33
    endloop
  endfacet
  facet normal 1 0 0
    outer loop
      vertex -2.5 2.8 38.6699
      vertex -2.5 3 44
      vertex -2.5 2.8 44
    endloop
  endfacet
  facet normal 1 0 0
    outer loop
      vertex -2.5 3 44
      vertex -2.5 2.8 38.6699
      vertex -2.5 3 33
    endloop
  endfacet
  facet normal 1 0 0
    outer loop
      vertex -2.5 -1 33
      vertex -2.5 2.8 38.6699
      vertex -2.5 -1 38.6699
    endloop
  endfacet
  facet normal 1 0 0
    outer loop
      vertex -2.5 2.8 38.6699
      vertex -2.5 -1 33
      vertex -2.5 3 33
    endloop
  endfacet
  facet normal 0 0 -1
    outer loop
      vertex -9 -33 42
      vertex 9 -32.6 42
      vertex 9 -33 42
    endloop
  endfacet
  facet normal -0 0 -1
    outer loop
      vertex 9 -32.6 42
      vertex -9 -33 42
      vertex -9 -32.6 42
    endloop
  endfacet
  facet normal 0 0 -1
    outer loop
      vertex 9 -30.1 42
      vertex 4.8949 -1 42
      vertex 9 -1 42
    endloop
  endfacet
  facet normal 0 0 -1
    outer loop
      vertex 4.8949 -1 42
      vertex -4.8949 -1 42
      vertex 4.8949 0 42
    endloop
  endfacet
  facet normal 0 0 -1
    outer loop
      vertex 9 -30.1 42
      vertex -4.8949 -1 42
      vertex 4.8949 -1 42
    endloop
  endfacet
  facet normal 0 0 -1
    outer loop
      vertex -9 -30.1 42
      vertex -4.8949 -1 42
      vertex 9 -30.1 42
    endloop
  endfacet
  facet normal -0 0 -1
    outer loop
      vertex -4.8949 -1 42
      vertex -9 -30.1 42
      vertex -9 -1 42
    endloop
  endfacet
  facet normal -0 0 -1
    outer loop
      vertex 4.8949 0 42
      vertex -4.8949 -1 42
      vertex -4.8949 0 42
    endloop
  endfacet
  facet normal 0 1 0
    outer loop
      vertex 4.04508 0 45.9389
      vertex 2.95438 0 47
      vertex 3.34565 0 46.7157
    endloop
  endfacet
  facet normal 0 1 0
    outer loop
      vertex 4.56773 0 45.0337
      vertex 2.95438 0 47
      vertex 4.04508 0 45.9389
    endloop
  endfacet
  facet normal 0 1 0
    outer loop
      vertex 4.89074 0 44.0396
      vertex 2.95438 0 47
      vertex 4.56773 0 45.0337
    endloop
  endfacet
  facet normal 0 1 0
    outer loop
      vertex -2.95438 0 47
      vertex -4.04508 0 45.9389
      vertex -3.34565 0 46.7157
    endloop
  endfacet
  facet normal 0 1 0
    outer loop
      vertex 2.95438 0 47
      vertex 4.89074 0 44.0396
      vertex -2.95438 0 47
    endloop
  endfacet
  facet normal 0 1 0
    outer loop
      vertex -2.95438 0 47
      vertex -4.56773 0 45.0337
      vertex -4.04508 0 45.9389
    endloop
  endfacet
  facet normal 0 1 0
    outer loop
      vertex -4.89074 0 44.0396
      vertex -2.95438 0 47
      vertex 4.89074 0 44.0396
    endloop
  endfacet
  facet normal 0 1 0
    outer loop
      vertex -2.95438 0 47
      vertex -4.89074 0 44.0396
      vertex -4.56773 0 45.0337
    endloop
  endfacet
  facet normal 0 1 0
    outer loop
      vertex 5 0 43
      vertex -4.89074 0 44.0396
      vertex 4.89074 0 44.0396
    endloop
  endfacet
  facet normal 0 1 0
    outer loop
      vertex 5 0 43
      vertex -5 0 43
      vertex -4.89074 0 44.0396
    endloop
  endfacet
  facet normal 0 1 -0
    outer loop
      vertex 4.8949 0 42
      vertex -5 0 43
      vertex 5 0 43
    endloop
  endfacet
  facet normal 0 1 0
    outer loop
      vertex -5 0 43
      vertex 4.8949 0 42
      vertex -4.8949 0 42
    endloop
  endfacet
  facet normal 0 -1 0
    outer loop
      vertex -9 -33 42
      vertex 9 -33 43
      vertex -9 -33 43
    endloop
  endfacet
  facet normal 0 -1 -0
    outer loop
      vertex 9 -33 43
      vertex -9 -33 42
      vertex 9 -33 42
    endloop
  endfacet
  facet normal -0 0 1
    outer loop
      vertex -9 -30.1 49
      vertex 9 -38.9 49
      vertex 9 -30.1 49
    endloop
  endfacet
  facet normal 0 0 1
    outer loop
      vertex 9 -38.9 49
      vertex -9 -30.1 49
      vertex -9 -38.9 49
    endloop
  endfacet
  facet normal 0 0 -1
    outer loop
      vertex -9 -36.4 43
      vertex 9 -33 43
      vertex 9 -36.4 43
    endloop
  endfacet
  facet normal -0 0 -1
    outer loop
      vertex 9 -33 43
      vertex -9 -36.4 43
      vertex -9 -33 43
    endloop
  endfacet
  facet normal 0 1 -0
    outer loop
      vertex 9 -30.1 47
      vertex -9 -30.1 49
      vertex 9 -30.1 49
    endloop
  endfacet
  facet normal 0 1 0
    outer loop
      vertex -9 -30.1 49
      vertex 9 -30.1 47
      vertex -9 -30.1 47
    endloop
  endfacet
  facet normal 0 -1 0
    outer loop
      vertex -9 -38.9 29
      vertex 9 -38.9 49
      vertex -9 -38.9 49
    endloop
  endfacet
  facet normal 0 -1 -0
    outer loop
      vertex 9 -38.9 49
      vertex -9 -38.9 29
      vertex 9 -38.9 29
    endloop
  endfacet
  facet normal 0 0 -1
    outer loop
      vertex -9 -32.6 29
      vertex 9 -30.1 29
      vertex 9 -32.6 29
    endloop
  endfacet
  facet normal -0 0 -1
    outer loop
      vertex 9 -30.1 29
      vertex -9 -32.6 29
      vertex -9 -30.1 29
    endloop
  endfacet
  facet normal 0 1 -0
    outer loop
      vertex 9 -30.1 29
      vertex -9 -30.1 42
      vertex 9 -30.1 42
    endloop
  endfacet
  facet normal 0 1 0
    outer loop
      vertex -9 -30.1 42
      vertex 9 -30.1 29
      vertex -9 -30.1 29
    endloop
  endfacet
  facet normal 0 -1 0
    outer loop
      vertex -9 -32.6 29
      vertex 9 -32.6 42
      vertex -9 -32.6 42
    endloop
  endfacet
  facet normal 0 -1 -0
    outer loop
      vertex 9 -32.6 42
      vertex -9 -32.6 29
      vertex 9 -32.6 29
    endloop
  endfacet
  facet normal 0 0 -1
    outer loop
      vertex -9 -38.9 29
      vertex 9 -36.4 29
      vertex 9 -38.9 29
    endloop
  endfacet
  facet normal -0 0 -1
    outer loop
      vertex 9 -36.4 29
      vertex -9 -38.9 29
      vertex -9 -36.4 29
    endloop
  endfacet
  facet normal 0 1 -0
    outer loop
      vertex 9 -36.4 29
      vertex -9 -36.4 43
      vertex 9 -36.4 43
    endloop
  endfacet
  facet normal 0 1 0
    outer loop
      vertex -9 -36.4 43
      vertex 9 -36.4 29
      vertex -9 -36.4 29
    endloop
  endfacet
endsolid OpenSCAD_Model
